<svg width="320" height="320" viewBox="0 0 320 320" fill="none" xmlns="http://www.w3.org/2000/svg">
  <circle cx="160" cy="160" r="160" fill="#403E3F"/>
  <rect x="78" y="62" width="29" height="80" rx="10" fill="white"/>
  <path d="M118 62C118 56.4772 122.477 52 128 52H196C201.523 52 206 56.4772 206 62V74C206 77.1819 204.482 80.1731 201.913 82.0631L153.347 117.8H195C200.523 117.8 205 122.277 205 127.8V132C205 137.523 200.523 142 195 142H128C122.477 142 118 137.523 118 132V119.9C118 116.755 119.482 113.794 121.997 111.903L170.954 75.1H128C122.477 75.1 118 70.6228 118 65.1V62Z" fill="white"/>
  <rect x="218" y="62" width="29" height="80" rx="10" fill="white"/>
  <circle cx="254.5" cy="128.5" r="10.5" fill="white"/>
  <path d="M82 176C82 170.477 86.4772 166 92 166H142C147.523 166 152 170.477 152 176V186C152 191.523 147.523 196 142 196H111V240C111 245.523 106.523 250 101 250H92C86.4772 250 82 245.523 82 240V176Z" fill="#18D2C7"/>
  <rect x="160" y="166" width="29" height="84" rx="10" fill="#18D2C7"/>
  <path d="M198 176C198 170.477 202.477 166 208 166H258C263.523 166 268 170.477 268 176V186C268 191.523 263.523 196 258 196H227V204H255C260.523 204 265 208.477 265 214V222C265 227.523 260.523 232 255 232H227V240C227 245.523 222.523 250 217 250H208C202.477 250 198 245.523 198 240V176Z" fill="#18D2C7"/>
</svg>
