<svg width="64" height="64" viewBox="0 0 64 64" fill="none" xmlns="http://www.w3.org/2000/svg">
  <rect width="64" height="64" rx="18" fill="#0B1B17"/>
  <path d="M20 24C22.2091 24 24 22.2091 24 20C24 17.7909 22.2091 16 20 16C17.7909 16 16 17.7909 16 20C16 22.2091 17.7909 24 20 24Z" fill="#34D399"/>
  <path d="M44 48C46.2091 48 48 46.2091 48 44C48 41.7909 46.2091 40 44 40C41.7909 40 40 41.7909 40 44C40 46.2091 41.7909 48 44 48Z" fill="#6EE7B7"/>
  <path d="M44 24C46.2091 24 48 22.2091 48 20C48 17.7909 46.2091 16 44 16C41.7909 16 40 17.7909 40 20C40 22.2091 41.7909 24 44 24Z" fill="#A7F3D0"/>
  <path d="M20 48C22.2091 48 24 46.2091 24 44C24 41.7909 22.2091 40 20 40C17.7909 40 16 41.7909 16 44C16 46.2091 17.7909 48 20 48Z" fill="#10B981"/>
  <path d="M23 21L41 21" stroke="#34D399" stroke-width="4" stroke-linecap="round"/>
  <path d="M23 43L41 43" stroke="#34D399" stroke-width="4" stroke-linecap="round"/>
  <path d="M22.5 22.5L41.5 41.5" stroke="#34D399" stroke-width="4" stroke-linecap="round"/>
</svg>
